<?xml version="1.0" encoding="utf-8"?>
<!-- Generator: Adobe Illustrator 23.0.3, SVG Export Plug-In . SVG Version: 6.00 Build 0)  -->
<svg version="1.1" id="Layer_1" xmlns="http://www.w3.org/2000/svg" xmlns:xlink="http://www.w3.org/1999/xlink" x="0px" y="0px"
	 viewBox="0 0 458.9 423.9" style="enable-background:new 0 0 458.9 423.9;" xml:space="preserve">
<style type="text/css">
	.st0{fill:#092970;}
</style>
<polygon class="st0" points="351.7,106.7 351.7,234.1 341.9,234.1 341.9,67.2 324.4,67.2 324.4,234.1 324.4,251.6 341.9,251.6 
	351.7,251.6 351.7,251.6 369.2,251.6 369.2,106.7 "/>
<polygon class="st0" points="123.3,329.8 22,228.5 222.9,27.6 259.2,63.9 262.5,60.6 222.9,21 15.4,228.5 119.2,332.4 "/>
<polygon class="st0" points="361.2,297.8 430.5,228.5 384.5,182.5 381.2,185.9 423.8,228.5 363.7,288.6 "/>
<path class="st0" d="M72.6,202.3c1.3,0,2.4-1.1,2.4-2.4v-5.2c0-1.3-1.1-2.4-2.4-2.4h-8.8c-1.3,0-2.4,1.1-2.4,2.4v5.2
	c0,1.3,1.1,2.4,2.4,2.4H72.6z"/>
<path class="st0" d="M53.8,209.5c-1.5,1.3-2.7,2.8-3.5,4.5c-0.8,1.7-1.5,3.5-1.9,5.2c-0.4,1.8-0.7,3.5-0.8,5.1
	c-0.1,1.6-0.1,3-0.1,4.2c0,1.2,0,2.6,0.1,4.2c0.1,1.6,0.3,3.3,0.8,5.1c0.4,1.8,1.1,3.5,1.9,5.2c0.8,1.7,2,3.2,3.5,4.5
	c1.3,1.1,2.8,2,4.5,2.6c1.7,0.6,3.4,1.1,5.2,1.4c1.8,0.3,3.7,0.5,5.7,0.6c2,0.1,3.9,0.1,5.8,0.1c1.9,0,3.8,0,5.7-0.1
	c1.9-0.1,3.9-0.3,5.7-0.6c1.9-0.3,3.6-0.8,5.3-1.4c1.7-0.6,3.1-1.5,4.4-2.6c1.5-1.3,2.7-2.8,3.5-4.5c0.8-1.7,1.5-3.5,1.9-5.2
	c0.4-1.8,0.7-3.5,0.8-5.1c0.1-1.6,0.1-3.1,0.1-4.2c0-1.1,0-2.5-0.1-4.2c-0.1-1.6-0.3-3.3-0.8-5.1c-0.4-1.8-1.1-3.5-1.9-5.2
	c-0.8-1.7-2-3.2-3.5-4.5c-1.3-1.1-2.8-1.9-4.4-2.6c-1.7-0.6-3.4-1.1-5.3-1.4c-1.9-0.3-3.8-0.5-5.7-0.6c-1.9-0.1-3.9-0.1-5.7-0.1
	c-1.9,0-3.9,0-5.8,0.1c-2,0.1-3.9,0.3-5.7,0.6c-1.8,0.3-3.6,0.8-5.2,1.4C56.6,207.5,55.1,208.4,53.8,209.5z M66.1,222.7
	c0.5-1.2,0.8-2,1.1-2.4c0.5-0.6,1.3-1.2,2.5-1.9c1.1-0.7,2.9-1.1,5.4-1.1c2.5,0,4.3,0.4,5.4,1.1c1.2,0.7,2,1.4,2.5,1.9
	c0.2,0.3,0.5,0.7,0.7,1.1c0.2,0.4,0.4,1,0.5,1.7c0.2,0.7,0.3,1.4,0.4,2.3c0.1,0.9,0.1,2,0.1,3.2c0,1.7-0.1,3.3-0.4,4.6
	c-0.2,1.4-0.7,2.6-1.4,3.6c-0.5,0.6-1.3,1.3-2.4,2c-1.2,0.7-3,1.1-5.3,1.1c-1.3,0-2.5-0.1-3.4-0.4c-1-0.3-1.8-0.6-2.4-1
	c-0.6-0.4-1.1-0.7-1.4-1.1c-0.3-0.3-0.5-0.6-0.6-0.7c-0.4-0.5-0.8-1.3-1.1-2.5c-0.4-1.1-0.6-3-0.6-5.7
	C65.5,225.8,65.7,223.9,66.1,222.7z"/>
<path class="st0" d="M88.5,202.3c1.3,0,2.4-1.1,2.4-2.4v-5.2c0-1.3-1.1-2.4-2.4-2.4h-8.8c-1.3,0-2.4,1.1-2.4,2.4v5.2
	c0,1.3,1.1,2.4,2.4,2.4H88.5z"/>
<path class="st0" d="M173.3,244.5c0.7-1.3,1.3-2.7,1.7-4.1c0.4-1.4,0.6-2.8,0.7-4.1c0.1-1.3,0.2-2.6,0.2-3.7V205h-17.6v23
	c0,0.7,0,1.4-0.1,2.2c0,0.8-0.1,1.5-0.3,2.3c-0.2,0.8-0.4,1.6-0.7,2.3c-0.3,0.8-0.7,1.5-1.2,2.2c-0.6,0.7-1.2,1.3-1.8,1.8
	c-0.7,0.4-1.4,0.8-2.1,1c-0.7,0.2-1.5,0.4-2.4,0.5c-0.8,0.1-1.7,0.1-2.6,0.1h-13.4v0h-5.9V205H110v40.1c0,2.5-0.3,4.4-0.9,5.7
	c-0.6,1.3-1.4,2.4-2.7,3.3c-1.1,0.9-2.4,1.6-3.9,1.9c-0.7,0.1-1.5,0.2-2.5,0.3c-1,0.1-2.1,0.1-3.4,0v11.3c3.2,0.1,6,0.1,8.5,0
	c2.5-0.1,4.7-0.2,6.6-0.5c3.8-0.4,6.8-1.4,9.1-2.9c2.3-1.6,3.9-3.4,4.8-5.6c1-2.2,1.6-4.3,1.8-6.2h6.2h0.8h18.2c1.2,0,2.5,0,4-0.1
	c1.5-0.1,3-0.2,4.6-0.5c1.6-0.3,3.2-0.7,4.7-1.3c1.6-0.6,3-1.4,4.3-2.5C171.5,247.1,172.5,245.9,173.3,244.5z"/>
<path class="st0" d="M218.3,335.7c2.9-1,5.2-2.6,7.1-4.9c0.8-1,1.4-2,1.9-3.1c0.5-1.1,0.9-2.3,1.1-3.5c0.3-1.2,0.4-2.6,0.5-4
	c0.1-1.4,0.2-2.9,0.2-4.6v-32.9c0-0.5,0-1.1-0.1-1.7c-0.1-0.6-0.2-1.3-0.4-1.9c-0.2-0.6-0.5-1.3-0.9-1.9c-0.4-0.6-0.9-1.2-1.5-1.7
	c-0.6-0.5-1.3-0.9-1.9-1.2c-0.7-0.3-1.4-0.5-2.1-0.7c-0.7-0.1-1.4-0.2-2.2-0.3c-0.7,0-1.4,0-2.1,0h-19.4c-1.9,0-3.5,0.1-5,0.3
	c-1.5,0.2-2.8,0.5-4,1c-1.2,0.5-2.3,1.1-3.3,1.8c-1,0.7-1.9,1.6-2.8,2.7c-0.8,1-1.5,2.1-2.1,3.2c-0.6,1.1-1.1,2.3-1.5,3.8
	c-0.4,1.4-0.7,3-0.9,4.8c-0.2,1.8-0.3,3.8-0.3,6.2c0,4.2,0.3,7.7,0.8,10.6c0.5,2.9,1.5,5.4,2.9,7.4c0.9,1.4,1.9,2.5,3,3.3
	c1.1,0.8,2.3,1.4,3.5,1.8c1.2,0.4,2.5,0.6,3.8,0.7c1.3,0.1,2.5,0.2,3.8,0.2h15.2c-0.4,1.4-1.1,2.5-2.2,3.4c-0.4,0.4-0.9,0.6-1.5,0.8
	c-0.5,0.2-1.1,0.3-1.7,0.4c-0.6,0.1-1.1,0.1-1.7,0.1H70.1v-44.1l-17.5-15.7v59.8V337v0.3l155.9-0.2
	C212.2,337.1,215.4,336.6,218.3,335.7z M206.5,308.1c-0.7,0-1.4,0-2.1,0c-0.7,0-1.4-0.1-2.1-0.2c-0.7-0.1-1.4-0.4-2.1-0.7
	c-0.7-0.3-1.3-0.8-1.8-1.5c-0.7-0.7-1.2-1.7-1.6-3c-0.4-1.3-0.5-3-0.5-5.2c0-1.4,0.1-2.7,0.2-3.7c0.1-1,0.3-1.9,0.5-2.5
	c0.2-0.7,0.4-1.2,0.6-1.7c0.2-0.4,0.4-0.8,0.6-1c0.5-0.6,1-1.1,1.6-1.4c0.6-0.4,1.2-0.6,1.8-0.8c0.6-0.2,1.3-0.3,1.9-0.3
	c0.6,0,1.2-0.1,1.9-0.1h2c0.6,0,1,0,1.4,0.1c0.4,0.1,0.9,0.3,1.4,0.6c0.5,0.4,0.9,0.8,1.1,1.3c0.2,0.5,0.3,1,0.3,1.7v18.3H206.5z"/>
<path class="st0" d="M362,320.8c0.6,0,1.3-0.1,2-0.2c1.4-0.2,2.5-0.9,3.4-1.9c0.4-0.4,0.8-0.9,1-1.4c0.2-0.5,0.4-1.1,0.5-1.6
	c0.1-0.6,0.2-1.1,0.2-1.6c0-0.5,0-1,0-1.5v-51.2h-17.5v44.5c0,0.4,0,0.8,0,1.3c0,0.5-0.1,0.8-0.2,1c-0.2,0.2-0.5,0.4-0.9,0.6
	c-0.5,0.2-0.8,0.2-1.1,0.2h-7.5v-47.7h-17.5v47.7h-10v-47.7h-17.3v47.7h-6.7v0h-6.4v-26.2c0-0.5,0-1.1-0.1-1.7
	c-0.1-0.6-0.2-1.3-0.4-1.9c-0.2-0.6-0.5-1.3-0.8-1.9c-0.4-0.6-0.8-1.2-1.4-1.7c-0.6-0.5-1.3-0.9-2-1.2c-0.7-0.3-1.4-0.5-2.1-0.7
	c-0.7-0.1-1.5-0.2-2.2-0.3c-0.7,0-1.4,0-2.1,0h-19.6c-1.9,0-3.5,0.1-5,0.3c-1.5,0.2-2.8,0.5-4,1c-1.2,0.5-2.3,1.1-3.3,1.8
	c-1,0.7-1.9,1.6-2.8,2.7c-0.9,1-1.6,2-2.2,3.2c-0.6,1.1-1.1,2.4-1.5,3.8c-0.4,1.4-0.7,3-0.9,4.8c-0.2,1.8-0.3,3.8-0.3,6.1
	c0,4.2,0.3,7.7,0.9,10.6c0.6,2.9,1.5,5.4,2.8,7.4c0.9,1.4,1.9,2.5,3,3.3c1.1,0.8,2.3,1.4,3.6,1.8c1.2,0.4,2.5,0.6,3.8,0.7
	c1.3,0.1,2.6,0.2,3.8,0.2h15.2c-0.3,1.3-1,2.5-2.1,3.4c-0.4,0.4-0.9,0.6-1.5,0.8c-0.6,0.2-1.1,0.3-1.7,0.4c-0.6,0.1-1.1,0.1-1.7,0.1
	c-0.6,0-1.1,0-1.5,0h-26.4c-0.3,1.2-0.7,2.4-1.2,3.4c-0.6,1.3-1.4,2.6-2.4,3.8c-1.4,1.7-3,3.2-4.9,4.3h40.4c3.7,0,6.9-0.5,9.8-1.4
	c2.9-1,5.2-2.6,7.1-4.9c1.1-1.4,1.9-2.9,2.4-4.5c0.5-1.6,0.9-3.4,1.2-5.3h5.5h1.1h69.7C360.7,320.9,361.4,320.9,362,320.8z
	 M266.3,308.8h-5c-0.6,0-1.3,0-2,0c-0.7,0-1.4-0.1-2.1-0.2c-0.7-0.1-1.4-0.4-2.1-0.7c-0.7-0.3-1.3-0.8-1.9-1.5
	c-0.7-0.7-1.2-1.8-1.5-3.3c-0.3-1.5-0.5-3.3-0.5-5.5c0-1.4,0.1-2.7,0.2-3.7c0.1-1,0.3-1.9,0.5-2.5c0.2-0.7,0.4-1.2,0.6-1.7
	c0.2-0.4,0.4-0.8,0.6-1c0.5-0.6,1-1.1,1.5-1.4c0.6-0.4,1.1-0.6,1.8-0.8c0.6-0.2,1.2-0.3,1.9-0.3c0.6,0,1.3-0.1,1.9-0.1h2
	c0.5,0,1,0,1.4,0.1c0.4,0.1,0.9,0.3,1.4,0.6c0.6,0.4,1,0.8,1.1,1.3c0.2,0.5,0.2,1,0.2,1.7V308.8z"/>
<path class="st0" d="M194.2,259.4c-1.3,0-2.3,1-2.3,2.3v5.6c0,1.3,1,2.3,2.3,2.3h9c1.3,0,2.3-1,2.3-2.3v-5.6c0-1.3-1-2.3-2.3-2.3
	H194.2z"/>
<path class="st0" d="M210.1,259.4c-1.3,0-2.3,1-2.3,2.3v5.6c0,1.3,1,2.3,2.3,2.3h9c1.3,0,2.3-1,2.3-2.3v-5.6c0-1.3-1-2.3-2.3-2.3
	H210.1z"/>
<path class="st0" d="M142.1,258.2c-1.3,0-2.3,1-2.3,2.3v5.6c0,1.3,1,2.3,2.3,2.3h9c1.3,0,2.3-1,2.3-2.3v-5.6c0-1.3-1-2.3-2.3-2.3
	H142.1z"/>
<path class="st0" d="M158,258.2c-1.3,0-2.3,1-2.3,2.3v5.6c0,1.3,1,2.3,2.3,2.3h9c1.3,0,2.3-1,2.3-2.3v-5.6c0-1.3-1-2.3-2.3-2.3H158z
	"/>
<g>
	<path class="st0" d="M62.8,360.2H49.4v38.4h13.2c8.8,0,15.9-7.6,15.9-19.8C78.5,368.5,72.9,360.2,62.8,360.2z M61.7,392.3h-5.9
		v-25.7h6c6.4,0.1,9.9,4.8,9.9,12.5C71.7,387.4,68.3,392.3,61.7,392.3z"/>
	<polygon class="st0" points="91.1,381.9 108.4,381.9 108.4,375.4 91.1,375.4 91.1,366.8 109.4,366.8 109.4,360.2 84.7,360.2 
		84.7,398.6 109.6,398.6 110.3,392.1 91.1,392.1 	"/>
	<rect x="115.7" y="360.2" class="st0" width="6.4" height="38.4"/>
	<path class="st0" d="M156.9,371c0-6.7-4.1-10.8-10.8-10.8h-15.9v38.4h6.3v-15.3h6.9c4.7,0,6,1.7,6,6.1v1.3c0,3.8,0,6.3,0.5,8h6.5
		c-0.4-1.7-0.4-4.8-0.4-7.5v-1.8c0-6.8-3.1-8.5-4.6-9.1C154.8,378.9,156.9,375.9,156.9,371z M144.7,377.1h-8.1v-10.7h8.2
		c3.8,0,5.7,1.8,5.7,5.2C150.4,375.3,148.6,377.1,144.7,377.1z"/>
	<path class="st0" d="M172.4,360.2l-12.5,38.4h6.6l3.1-9.6h13.9l3.2,9.6h6.9l-13.1-38.4H172.4z M171.3,382.4c2.5-8,4.3-14.1,5-16.9
		h0c0.7,2.8,2.2,7.5,5.3,16.9H171.3z"/>
	<path class="st0" d="M227.1,389.2L227.1,389.2c-0.9-4.7-4.5-16.8-7.9-28.9H210v38.4h5.8v-14.5c0-6.5-0.2-14.2-0.5-18.6h0
		c1.6,6.9,5.7,21.3,8.6,33.1h5.6c3.8-13.8,7.5-26.5,9-33.1h0c-0.2,4.2-0.2,11.1-0.2,17.8v15.3h6.2v-38.4h-9.3
		C232,371.8,228.4,383.5,227.1,389.2z"/>
	<path class="st0" d="M261.2,360.2l-12.5,38.4h6.6l3.1-9.6h13.9l3.2,9.6h6.9l-13.1-38.4H261.2z M260.1,382.4c2.5-8,4.3-14.1,5-16.9
		h0c0.7,2.8,2.2,7.5,5.3,16.9H260.1z"/>
	<path class="st0" d="M313.2,371c0-6.7-4.1-10.8-10.8-10.8h-15.9v38.4h6.3v-15.3h6.9c4.7,0,6,1.7,6,6.1v1.3c0,3.8,0,6.3,0.5,8h6.5
		c-0.4-1.7-0.4-4.8-0.4-7.5v-1.8c0-6.8-3.1-8.5-4.6-9.1C311,378.9,313.2,375.9,313.2,371z M300.9,377.1h-8.1v-10.7h8.2
		c3.8,0,5.7,1.8,5.7,5.2C306.7,375.3,304.9,377.1,300.9,377.1z"/>
	<path class="st0" d="M349.5,360.2h-7.9c-5.8,6.6-11,12.4-15.5,17.5v-17.5h-6.4v38.4h6.4v-13.2l4.1-4.3l12.1,17.5h8l-15.5-21.9
		L349.5,360.2z"/>
	<polygon class="st0" points="359.3,381.9 376.6,381.9 376.6,375.4 359.3,375.4 359.3,366.8 377.6,366.8 377.6,360.2 352.9,360.2 
		352.9,398.6 377.8,398.6 378.5,392.1 359.3,392.1 	"/>
	<polygon class="st0" points="381.1,366.7 392.1,366.7 392.1,398.6 398.5,398.6 398.5,366.7 409.4,366.7 409.4,360.2 381.1,360.2 	
		"/>
</g>
<polygon class="st0" points="297.1,0 297.1,234.1 287.2,234.1 287.2,67.2 269.6,67.2 269.6,234.1 269.6,251.6 269.6,251.6 
	287.2,251.6 287.2,251.6 314.4,251.6 314.4,236.4 314.4,234.1 314.4,0 "/>
<path class="st0" d="M243.3,107.1v120.7c0,0.7,0,1.4-0.1,2.2c0,0.8-0.1,1.5-0.3,2.3c-0.2,0.8-0.4,1.6-0.7,2.3
	c-0.3,0.8-0.7,1.5-1.2,2.2c-0.6,0.7-1.2,1.3-1.8,1.8c-0.7,0.4-1.4,0.8-2.1,1c-0.7,0.2-1.5,0.4-2.4,0.5c-0.8,0.1-1.7,0.1-2.6,0.1
	h-0.5v0h-5.7c0.4-1.6,0.7-3.3,0.9-5.2c0.2-1.9,0.2-3.9,0.2-6c0-1.7,0-3.4-0.1-5.2c-0.1-1.8-0.3-3.5-0.6-5.2
	c-0.4-1.7-0.9-3.3-1.6-4.9c-0.7-1.5-1.7-3-3-4.2c-1.9-1.9-4-3.2-6.4-3.9c-2.4-0.7-5.1-1-7.9-1h-25.6v12h17.5c3,0,5.1,0.6,6.4,1.7
	c1.3,1.2,2.2,2.5,2.7,4c0.3,1,0.5,1.9,0.6,2.9c0.1,1,0.2,2.1,0.2,3.3c0,2.8-0.2,4.8-0.6,5.9c-0.3,1.1-0.6,1.9-0.9,2.4
	c-0.8,1.3-1.9,2.2-3.3,2.6c-1.4,0.4-2.7,0.6-3.8,0.6h-19.5c-0.1,0.5-0.2,1.1-0.4,1.6c-0.5,1.9-1.3,3.7-2.2,5.4c-1,1.8-2.4,3.5-4.1,5
	h57.4h1h5.1c1.2,0,2.5,0,4-0.1c1.5-0.1,3-0.2,4.6-0.5c1.6-0.3,3.2-0.7,4.7-1.3c1.6-0.6,3-1.4,4.3-2.5c1.3-1.1,2.3-2.3,3.1-3.6
	c0.7-1.3,1.3-2.7,1.7-4.1c0.4-1.4,0.6-2.8,0.7-4.1c0.1-1.3,0.2-2.6,0.2-3.7V107.1H243.3z"/>
</svg>
