<?xml version="1.0" encoding="utf-8"?>
<!-- Generator: Adobe Illustrator 23.0.3, SVG Export Plug-In . SVG Version: 6.00 Build 0)  -->
<svg version="1.1" id="Capa_1" xmlns="http://www.w3.org/2000/svg" xmlns:xlink="http://www.w3.org/1999/xlink" x="0px" y="0px"
	 viewBox="0 0 1546.2 351.9" style="enable-background:new 0 0 1546.2 351.9;" xml:space="preserve">
<style type="text/css">
	.st0{fill:#FFFFFF;}
	.st1{enable-background:new    ;}
</style>
<g>
	<path class="st0" d="M504.8,125.2L344.9,4.6c-4.3-3.2-10.1-3.2-14.3,0l-26.3,19.8L278,4.6c-4.3-3.2-10.1-3.2-14.3,0l-25.6,19.3
		L212.5,4.6c-4.3-3.2-10.1-3.2-14.3,0l-160,120.6c-3.1,2.2-4.8,5.8-4.8,9.6v203c0,6.7,5.3,11.9,11.9,11.9h452.3
		c6.7,0,11.9-5.3,11.9-11.9v-203C509.5,131,507.8,127.4,504.8,125.2z M485.7,325.7h-43.2V134.6c0-3.8-1.7-7.3-4.8-9.6L324.1,39.2
		L337.7,29l147.9,111.6L485.7,325.7L485.7,325.7z M377,325.7V134.6c0-3.8-1.7-7.3-4.8-9.6L257.7,38.9l13-9.7l147.9,111.6v185.1H377
		L377,325.7L377,325.7z M224.8,325.7h-39.2V239h39.1L224.8,325.7z M248.7,325.7v-98.6c0-6.7-5.3-11.9-11.9-11.9h-63.1
		c-6.7,0-11.9,5.3-11.9,11.9v98.6H57.2v-185L205.2,29.1l147.9,111.6v185.1L248.7,325.7L248.7,325.7z"/>
	<g class="st1">
		<path class="st0" d="M567.8,292.7V179.1h76.6v13.4h-61.6v35.2h53.3v13.4h-53.3v51.6H567.8z"/>
		<path class="st0" d="M662.3,195.1v-16h13.9v16H662.3z M662.3,292.7v-82.3h13.9v82.3H662.3z"/>
		<path class="st0" d="M697.5,292.7v-82.3H710v11.7c6-9,14.8-13.6,26.2-13.6c5,0,9.5,0.9,13.7,2.7c4.2,1.8,7.3,4.1,9.3,7
			c2.1,2.9,3.5,6.3,4.3,10.3c0.5,2.6,0.8,7.1,0.8,13.6v50.6h-13.9v-50.1c0-5.7-0.5-9.9-1.6-12.7c-1.1-2.8-3-5.1-5.8-6.7
			c-2.8-1.7-6-2.5-9.7-2.5c-5.9,0-11.1,1.9-15.4,5.7c-4.3,3.8-6.5,10.9-6.5,21.5v44.9H697.5z"/>
		<path class="st0" d="M839.1,292.7v-10.4c-5.2,8.2-12.9,12.2-23,12.2c-6.6,0-12.6-1.8-18.1-5.4c-5.5-3.6-9.8-8.7-12.8-15.1
			c-3-6.5-4.5-13.9-4.5-22.4c0-8.2,1.4-15.7,4.1-22.4c2.7-6.7,6.8-11.8,12.3-15.4c5.5-3.6,11.6-5.3,18.4-5.3c5,0,9.4,1,13.2,3.1
			s7,4.8,9.5,8.2v-40.8H852v113.6H839.1z M795,251.6c0,10.5,2.2,18.4,6.7,23.6c4.4,5.2,9.7,7.8,15.7,7.8c6.1,0,11.3-2.5,15.5-7.5
			c4.3-5,6.4-12.6,6.4-22.8c0-11.3-2.2-19.5-6.5-24.8s-9.7-7.9-16-7.9c-6.2,0-11.4,2.5-15.5,7.6C797.1,232.8,795,240.7,795,251.6z"
			/>
		<path class="st0" d="M920.3,292.7V179.1h15v46.6h59v-46.6h15v113.6h-15v-53.5h-59v53.5H920.3z"/>
		<path class="st0" d="M1027.5,251.6c0-15.2,4.2-26.5,12.7-33.9c7.1-6.1,15.7-9.1,25.9-9.1c11.3,0,20.6,3.7,27.7,11.1
			c7.2,7.4,10.8,17.7,10.8,30.7c0,10.6-1.6,18.9-4.8,25s-7.8,10.8-13.9,14.1c-6.1,3.4-12.7,5-19.9,5c-11.5,0-20.8-3.7-27.9-11.1
			C1031,276.1,1027.5,265.4,1027.5,251.6z M1041.8,251.6c0,10.5,2.3,18.4,6.9,23.7c4.6,5.2,10.4,7.9,17.4,7.9
			c6.9,0,12.7-2.6,17.3-7.9c4.6-5.3,6.9-13.3,6.9-24.1c0-10.2-2.3-17.9-6.9-23.1c-4.6-5.2-10.4-7.9-17.2-7.9c-7,0-12.8,2.6-17.4,7.8
			C1044.1,233.1,1041.8,241,1041.8,251.6z"/>
		<path class="st0" d="M1174.8,292.7v-12.1c-6.4,9.3-15.1,13.9-26.1,13.9c-4.9,0-9.4-0.9-13.6-2.8c-4.2-1.9-7.3-4.2-9.4-7
			c-2-2.8-3.5-6.3-4.3-10.3c-0.6-2.7-0.9-7.1-0.9-13v-51h13.9V256c0,7.3,0.3,12.2,0.9,14.7c0.9,3.7,2.7,6.5,5.6,8.6
			c2.8,2.1,6.4,3.1,10.5,3.1c4.2,0,8.1-1.1,11.8-3.2c3.7-2.1,6.3-5.1,7.8-8.8c1.5-3.7,2.3-9.1,2.3-16.1v-44.1h13.9v82.3H1174.8z"/>
		<path class="st0" d="M1203.6,268.1l13.8-2.2c0.8,5.5,2.9,9.8,6.5,12.7c3.5,2.9,8.5,4.4,14.8,4.4c6.4,0,11.2-1.3,14.3-3.9
			c3.1-2.6,4.6-5.7,4.6-9.2c0-3.1-1.4-5.6-4.1-7.4c-1.9-1.2-6.7-2.8-14.3-4.7c-10.2-2.6-17.3-4.8-21.3-6.7c-4-1.9-6.9-4.5-9-7.8
			c-2-3.3-3.1-7-3.1-11c0-3.7,0.8-7.1,2.5-10.2c1.7-3.1,4-5.7,6.9-7.8c2.2-1.6,5.1-3,8.9-4.1c3.7-1.1,7.8-1.7,12-1.7
			c6.5,0,12.1,0.9,17,2.8c4.9,1.9,8.5,4.4,10.8,7.6c2.3,3.2,3.9,7.4,4.8,12.7l-13.6,1.9c-0.6-4.2-2.4-7.5-5.4-9.9
			c-3-2.4-7.2-3.6-12.6-3.6c-6.4,0-11,1.1-13.7,3.2c-2.7,2.1-4.1,4.6-4.1,7.4c0,1.8,0.6,3.4,1.7,4.9c1.1,1.5,2.9,2.7,5.3,3.7
			c1.4,0.5,5.5,1.7,12.3,3.6c9.9,2.6,16.7,4.8,20.6,6.5c3.9,1.7,7,4.1,9.2,7.3c2.2,3.2,3.3,7.2,3.3,11.9c0,4.6-1.4,9-4.1,13.1
			s-6.6,7.3-11.7,9.5c-5.1,2.2-10.9,3.4-17.4,3.4c-10.7,0-18.8-2.2-24.4-6.7C1208.7,283.4,1205.1,276.9,1203.6,268.1z"/>
		<path class="st0" d="M1344.8,266.2l14.4,1.8c-2.3,8.4-6.5,15-12.6,19.6c-6.1,4.6-14,7-23.6,7c-12,0-21.6-3.7-28.6-11.1
			c-7.1-7.4-10.6-17.8-10.6-31.2c0-13.8,3.6-24.6,10.7-32.2c7.1-7.6,16.4-11.5,27.7-11.5c11,0,20,3.7,27,11.2
			c7,7.5,10.5,18,10.5,31.6c0,0.8,0,2.1-0.1,3.7h-61.4c0.5,9,3.1,16,7.7,20.8c4.6,4.8,10.3,7.2,17.2,7.2c5.1,0,9.5-1.3,13.1-4
			C1339.8,276.4,1342.7,272.1,1344.8,266.2z M1299,243.6h45.9c-0.6-6.9-2.4-12.1-5.3-15.6c-4.4-5.4-10.2-8.1-17.3-8.1
			c-6.4,0-11.8,2.1-16.2,6.4C1301.9,230.7,1299.5,236.5,1299,243.6z"/>
		<path class="st0" d="M1371.2,268.1l13.8-2.2c0.8,5.5,2.9,9.8,6.5,12.7c3.5,2.9,8.5,4.4,14.8,4.4c6.4,0,11.2-1.3,14.3-3.9
			c3.1-2.6,4.6-5.7,4.6-9.2c0-3.1-1.4-5.6-4.1-7.4c-1.9-1.2-6.7-2.8-14.3-4.7c-10.2-2.6-17.3-4.8-21.3-6.7c-4-1.9-6.9-4.5-9-7.8
			c-2-3.3-3.1-7-3.1-11c0-3.7,0.8-7.1,2.5-10.2c1.7-3.1,4-5.7,6.9-7.8c2.2-1.6,5.1-3,8.9-4.1c3.7-1.1,7.8-1.7,12-1.7
			c6.5,0,12.1,0.9,17,2.8c4.9,1.9,8.5,4.4,10.8,7.6c2.3,3.2,3.9,7.4,4.8,12.7l-13.6,1.9c-0.6-4.2-2.4-7.5-5.4-9.9
			c-3-2.4-7.2-3.6-12.6-3.6c-6.4,0-11,1.1-13.7,3.2c-2.7,2.1-4.1,4.6-4.1,7.4c0,1.8,0.6,3.4,1.7,4.9c1.1,1.5,2.9,2.7,5.3,3.7
			c1.4,0.5,5.5,1.7,12.3,3.6c9.9,2.6,16.7,4.8,20.6,6.5c3.9,1.7,7,4.1,9.2,7.3c2.2,3.2,3.3,7.2,3.3,11.9c0,4.6-1.4,9-4.1,13.1
			s-6.6,7.3-11.7,9.5c-5.1,2.2-10.9,3.4-17.4,3.4c-10.7,0-18.8-2.2-24.4-6.7C1376.3,283.4,1372.7,276.9,1371.2,268.1z"/>
	</g>
</g>
</svg>
