<?xml version="1.0" standalone="no"?>
<!DOCTYPE svg PUBLIC "-//W3C//DTD SVG 20010904//EN"
 "http://www.w3.org/TR/2001/REC-SVG-20010904/DTD/svg10.dtd">
<svg version="1.0" xmlns="http://www.w3.org/2000/svg"
 width="87.000000pt" height="87.000000pt" viewBox="0 0 87.000000 87.000000"
 preserveAspectRatio="xMidYMid meet">

<g transform="translate(0.000000,87.000000) scale(0.100000,-0.100000)"
fill="#000000" stroke="none">
<path d="M560 650 c0 -127 -4 -200 -10 -200 -6 0 -10 55 -10 145 0 122 -2 145
-15 145 -13 0 -15 -24 -15 -155 l0 -155 35 0 35 0 0 210 c0 133 -4 210 -10
210 -6 0 -10 -73 -10 -200z"/>
<path d="M460 775 c13 -14 26 -25 28 -25 3 0 -5 11 -18 25 -13 14 -26 25 -28
25 -3 0 5 -11 18 -25z"/>
<path d="M610 585 l0 -155 35 0 35 0 0 120 c0 100 -2 120 -15 120 -12 0 -15
-19 -15 -110 0 -67 -4 -110 -10 -110 -6 0 -10 55 -10 145 0 90 -4 145 -10 145
-6 0 -10 -58 -10 -155z"/>
<path d="M324 708 l-19 -23 23 19 c21 18 27 26 19 26 -2 0 -12 -10 -23 -22z"/>
<path d="M269 653 l-24 -28 28 24 c25 23 32 31 24 31 -2 0 -14 -12 -28 -27z"/>
<path d="M468 558 c-3 -96 -5 -113 -20 -116 -12 -2 -17 5 -20 25 -3 24 -8 28
-38 30 -29 2 -31 1 -10 -6 15 -4 25 -14 25 -26 0 -12 -9 -22 -25 -26 -16 -5
-2 -7 43 -8 l67 -1 0 120 c0 154 -18 160 -22 8z"/>
<path d="M209 593 l-24 -28 28 24 c15 14 27 26 27 28 0 8 -8 1 -31 -24z"/>
<path d="M149 533 l-24 -28 28 24 c15 14 27 26 27 28 0 8 -8 1 -31 -24z"/>
<path d="M740 495 c19 -19 36 -35 39 -35 3 0 -10 16 -29 35 -19 19 -36 35 -39
35 -3 0 10 -16 29 -35z"/>
<path d="M94 478 l-19 -23 23 19 c21 18 27 26 19 26 -2 0 -12 -10 -23 -22z"/>
<path d="M136 482 c-12 -36 3 -53 43 -50 33 3 36 6 36 33 0 27 -3 30 -37 33
-29 2 -38 -1 -42 -16z m56 -34 c-16 -16 -37 4 -28 28 6 16 8 16 23 1 13 -13
15 -19 5 -29z"/>
<path d="M240 462 c0 -21 -5 -43 -12 -50 -9 -9 -8 -12 4 -12 8 0 21 6 28 14 6
8 28 16 48 18 34 3 37 6 40 36 4 41 -25 46 -30 5 -2 -22 -8 -28 -28 -28 -20 0
-26 6 -28 28 -5 41 -22 33 -22 -11z"/>
<path d="M567 400 c-3 -8 -7 -28 -9 -43 -4 -35 -22 -36 -26 -2 -3 23 -7 26
-40 23 -34 -3 -37 -6 -37 -33 0 -23 5 -31 23 -33 33 -5 27 -20 -10 -25 -28 -3
-27 -4 10 -5 30 -2 44 3 48 13 5 11 24 15 80 15 l74 0 0 45 c0 33 -4 45 -15
45 -11 0 -15 -11 -15 -41 0 -24 -4 -38 -10 -34 -5 3 -10 21 -10 40 0 50 -18
52 -22 3 -4 -56 -22 -55 -29 2 -3 26 -8 39 -12 30z m-62 -53 c0 -26 -20 -25
-23 2 -3 16 1 22 10 19 7 -3 13 -12 13 -21z"/>
<path d="M360 345 c0 -31 3 -35 26 -35 14 0 23 -4 19 -10 -4 -6 -55 -10 -121
-10 l-114 0 0 40 c0 29 -4 40 -15 40 -11 0 -15 -12 -15 -45 l0 -45 144 0 c159
0 156 -1 156 66 0 33 -1 34 -40 34 -39 0 -40 -1 -40 -35z m50 5 c0 -11 -7 -20
-15 -20 -15 0 -21 21 -8 33 12 13 23 7 23 -13z"/>
<path d="M220 65 c-11 -13 -11 -18 0 -28 10 -9 11 -9 6 1 -4 7 -2 19 4 27 7 8
10 15 7 15 -2 0 -10 -7 -17 -15z"/>
<path d="M358 68 c8 -9 11 -22 8 -27 -4 -5 -3 -12 2 -15 16 -10 10 33 -6 46
-15 12 -16 11 -4 -4z"/>
<path d="M682 53 c-9 -22 -9 -24 0 -11 11 15 13 15 26 0 11 -15 11 -14 1 8 -6
14 -13 26 -14 28 -1 1 -7 -10 -13 -25z"/>
<path d="M160 60 c0 -5 5 -10 11 -10 5 0 7 5 4 10 -3 6 -8 10 -11 10 -2 0 -4
-4 -4 -10z"/>
<path d="M247 51 c-4 -17 -3 -21 5 -13 5 5 8 16 6 23 -3 8 -7 3 -11 -10z"/>
<path d="M270 56 c0 -8 4 -17 9 -20 5 -4 7 3 4 14 -6 23 -13 26 -13 6z"/>
<path d="M307 51 c-4 -17 -3 -21 5 -13 5 5 8 16 6 23 -3 8 -7 3 -11 -10z"/>
<path d="M330 56 c0 -8 4 -17 9 -20 5 -4 7 3 4 14 -6 23 -13 26 -13 6z"/>
<path d="M390 50 c0 -11 4 -20 9 -20 5 0 7 9 4 20 -3 11 -7 20 -9 20 -2 0 -4
-9 -4 -20z"/>
<path d="M441 53 c-1 -16 5 -23 17 -23 10 0 13 3 6 8 -6 4 -14 14 -17 22 -4
10 -6 8 -6 -7z"/>
<path d="M492 50 c0 -14 2 -19 5 -12 2 6 2 18 0 25 -3 6 -5 1 -5 -13z"/>
<path d="M517 51 c-4 -17 -3 -21 5 -13 5 5 8 16 6 23 -3 8 -7 3 -11 -10z"/>
<path d="M552 50 c0 -14 2 -19 5 -12 2 6 2 18 0 25 -3 6 -5 1 -5 -13z"/>
<path d="M622 50 c0 -14 2 -19 5 -12 2 6 2 18 0 25 -3 6 -5 1 -5 -13z"/>
<path d="M652 50 c0 -14 2 -19 5 -12 2 6 2 18 0 25 -3 6 -5 1 -5 -13z"/>
<path d="M591 44 c0 -11 3 -14 6 -6 3 7 2 16 -1 19 -3 4 -6 -2 -5 -13z"/>
</g>
</svg>
