<?xml version="1.0" encoding="utf-8"?>
<!-- Generator: Adobe Illustrator 23.0.3, SVG Export Plug-In . SVG Version: 6.00 Build 0)  -->
<svg version="1.1" id="Capa_1" xmlns="http://www.w3.org/2000/svg" xmlns:xlink="http://www.w3.org/1999/xlink" x="0px" y="0px"
	 viewBox="0 0 1496 338" style="enable-background:new 0 0 1496 338;" xml:space="preserve">
<style type="text/css">
	.st0{fill:#FFFFFF;}
</style>
<polygon class="st0" points="398.9,101.6 398.9,223 389.5,223 389.5,64 372.9,64 372.9,223 372.9,239.6 389.5,239.6 398.9,239.6 
	398.9,239.6 415.5,239.6 415.5,101.6 "/>
<polygon class="st0" points="171.3,304 84.9,217.6 276.3,26.3 310.8,60.9 314,57.7 276.3,20 78.6,217.6 168.2,307.2 "/>
<polygon class="st0" points="426.2,265.4 473.9,217.6 430.1,173.9 427,177 467.6,217.6 423,262.2 "/>
<path class="st0" d="M133.1,192.7c1.3,0,2.3-1,2.3-2.3v-4.9c0-1.3-1-2.3-2.3-2.3h-8.3c-1.3,0-2.3,1-2.3,2.3v4.9c0,1.3,1,2.3,2.3,2.3
	H133.1z"/>
<path class="st0" d="M115.2,199.5c-1.4,1.3-2.5,2.7-3.3,4.3s-1.4,3.3-1.8,5s-0.6,3.3-0.7,4.9c-0.1,1.6-0.1,2.9-0.1,4s0,2.5,0.1,4
	c0.1,1.6,0.3,3.2,0.7,4.9c0.4,1.7,1,3.3,1.8,5c0.8,1.6,1.9,3.1,3.3,4.3c1.3,1.1,2.7,1.9,4.2,2.5c1.6,0.6,3.2,1,5,1.3
	s3.6,0.5,5.4,0.6c1.9,0.1,3.7,0.1,5.6,0.1c1.8,0,3.6,0,5.5-0.1s3.7-0.3,5.5-0.6s3.5-0.7,5.1-1.3s3-1.4,4.2-2.5
	c1.4-1.3,2.5-2.7,3.3-4.3s1.4-3.3,1.8-5c0.4-1.7,0.6-3.3,0.7-4.9c0.1-1.6,0.1-2.9,0.1-4s0-2.4-0.1-4s-0.3-3.2-0.7-4.9s-1-3.3-1.8-5
	c-0.8-1.6-1.9-3.1-3.3-4.3c-1.2-1-2.6-1.9-4.2-2.5c-1.6-0.6-3.3-1.1-5.1-1.4c-1.8-0.3-3.6-0.5-5.5-0.6s-3.7-0.1-5.5-0.1
	s-3.7,0-5.6,0.1c-1.9,0.1-3.7,0.3-5.4,0.6c-1.8,0.3-3.4,0.8-5,1.4C117.9,197.6,116.4,198.5,115.2,199.5z M126.9,212.1
	c0.4-1.1,0.8-1.9,1-2.3c0.4-0.5,1.2-1.2,2.3-1.8c1.1-0.7,2.8-1,5.1-1c2.4,0,4.1,0.3,5.1,1c1.1,0.7,1.9,1.3,2.3,1.8
	c0.2,0.3,0.4,0.7,0.6,1.1c0.2,0.4,0.4,0.9,0.5,1.6c0.2,0.6,0.3,1.4,0.4,2.2c0.1,0.9,0.1,1.9,0.1,3c0,1.6-0.1,3.1-0.4,4.4
	c-0.2,1.3-0.7,2.4-1.4,3.4c-0.4,0.6-1.2,1.2-2.3,1.9s-2.8,1.1-5.1,1.1c-1.3,0-2.3-0.1-3.3-0.4c-0.9-0.3-1.7-0.6-2.3-0.9
	c-0.6-0.3-1.1-0.7-1.4-1c-0.3-0.3-0.5-0.5-0.5-0.7c-0.4-0.5-0.7-1.3-1.1-2.4c-0.4-1.1-0.5-2.9-0.5-5.4
	C126.3,215.1,126.5,213.2,126.9,212.1z"/>
<path class="st0" d="M148.2,192.7c1.3,0,2.3-1,2.3-2.3v-4.9c0-1.3-1-2.3-2.3-2.3h-8.3c-1.3,0-2.3,1-2.3,2.3v4.9c0,1.3,1,2.3,2.3,2.3
	H148.2z"/>
<path class="st0" d="M229,232.9c0.7-1.3,1.2-2.6,1.6-3.9c0.4-1.3,0.6-2.6,0.7-3.9c0.1-1.3,0.1-2.5,0.1-3.6v-26.2h-16.8v21.9
	c0,0.7,0,1.4-0.1,2.1c0,0.7-0.1,1.5-0.3,2.2c-0.2,0.8-0.4,1.5-0.7,2.2s-0.7,1.4-1.2,2.1c-0.5,0.7-1.1,1.3-1.8,1.7
	c-0.6,0.4-1.3,0.7-2,1c-0.7,0.2-1.5,0.4-2.3,0.5s-1.6,0.1-2.4,0.1h-12.7l0,0h-5.6v-33.8h-16.9v38.2c0,2.4-0.3,4.2-0.9,5.5
	c-0.5,1.2-1.4,2.3-2.5,3.2s-2.3,1.5-3.7,1.8c-0.6,0.1-1.4,0.2-2.4,0.3c-0.9,0.1-2,0.1-3.3,0V255c3,0.1,5.7,0,8.1,0
	c2.4-0.1,4.5-0.2,6.3-0.4c3.6-0.4,6.5-1.4,8.6-2.8c2.2-1.5,3.7-3.3,4.6-5.3c0.9-2.1,1.5-4.1,1.7-5.9h5.9h0.8h17.3
	c1.1,0,2.4,0,3.8-0.1c1.4-0.1,2.9-0.2,4.4-0.5s3-0.7,4.5-1.2c1.5-0.6,2.9-1.4,4.1-2.4C227.3,235.3,228.2,234.1,229,232.9z"/>
<path class="st0" d="M271.9,319.7c2.7-0.9,5-2.5,6.7-4.7c0.7-0.9,1.4-1.9,1.8-2.9c0.5-1,0.8-2.2,1.1-3.3c0.3-1.2,0.4-2.5,0.5-3.8
	c0.1-1.4,0.1-2.8,0.1-4.4v-31.4c0-0.5,0-1.1-0.1-1.6c-0.1-0.6-0.2-1.2-0.4-1.8c-0.2-0.6-0.5-1.2-0.8-1.8c-0.4-0.6-0.8-1.1-1.5-1.6
	c-0.6-0.5-1.2-0.9-1.8-1.2c-0.6-0.3-1.3-0.5-2-0.6s-1.4-0.2-2.1-0.3c-0.7,0-1.4,0-2,0H253c-1.8,0-3.4,0.1-4.8,0.3
	c-1.4,0.2-2.7,0.5-3.8,1c-1.2,0.4-2.2,1-3.1,1.7c-0.9,0.7-1.9,1.5-2.7,2.5s-1.5,2-2,3c-0.6,1-1,2.2-1.4,3.6
	c-0.4,1.3-0.6,2.8-0.8,4.5s-0.3,3.6-0.3,5.9c0,4,0.2,7.3,0.7,10.1c0.5,2.8,1.4,5.1,2.8,7c0.8,1.3,1.8,2.4,2.9,3.2
	c1.1,0.8,2.2,1.3,3.4,1.7c1.2,0.4,2.4,0.6,3.6,0.7c1.2,0.1,2.4,0.1,3.6,0.1h14.5c-0.4,1.3-1.1,2.4-2.1,3.3c-0.4,0.3-0.9,0.6-1.4,0.7
	c-0.5,0.2-1,0.3-1.6,0.3c-0.5,0.1-1.1,0.1-1.6,0.1h-128v-39.9h-16.7V310v10.9v0.3l148.5-0.2C266,321,269.1,320.6,271.9,319.7z
	 M260.7,293.5c-0.6,0-1.3,0-2,0s-1.3-0.1-2-0.2s-1.3-0.3-2-0.7c-0.6-0.3-1.2-0.8-1.8-1.4c-0.6-0.7-1.1-1.7-1.5-2.9
	c-0.3-1.2-0.5-2.9-0.5-4.9c0-1.4,0.1-2.5,0.2-3.5c0.1-1,0.3-1.8,0.4-2.4c0.2-0.7,0.4-1.2,0.6-1.6c0.2-0.4,0.4-0.7,0.6-0.9
	c0.4-0.6,0.9-1,1.5-1.4c0.5-0.3,1.1-0.6,1.7-0.8c0.6-0.2,1.2-0.3,1.8-0.3s1.2-0.1,1.8-0.1h1.9c0.5,0,1,0,1.4,0.1s0.8,0.3,1.4,0.6
	c0.5,0.4,0.8,0.8,1,1.3c0.2,0.4,0.3,1,0.3,1.6v17.5L260.7,293.5L260.7,293.5z"/>
<path class="st0" d="M408.7,305.6c0.6,0,1.2-0.1,1.9-0.2c1.3-0.2,2.4-0.8,3.3-1.8c0.4-0.4,0.7-0.9,1-1.4c0.2-0.5,0.4-1,0.5-1.5
	s0.2-1,0.2-1.5s0-1,0-1.5v-48.8h-16.7v42.4c0,0.4,0,0.8,0,1.2c0,0.4-0.1,0.8-0.2,1c-0.2,0.2-0.5,0.4-0.9,0.6s-0.8,0.2-1.1,0.2h-7.1
	v-45.4H373v45.4h-9.6v-45.4h-16.5v45.4h-6.3l0,0h-6.1v-24.9c0-0.5,0-1.1-0.1-1.6c-0.1-0.6-0.2-1.2-0.4-1.8c-0.2-0.6-0.5-1.2-0.8-1.8
	c-0.3-0.6-0.8-1.1-1.4-1.6s-1.2-0.9-1.9-1.2c-0.7-0.3-1.3-0.5-2-0.6s-1.4-0.2-2.1-0.3c-0.7,0-1.4,0-2,0h-18.7
	c-1.8,0-3.4,0.1-4.8,0.3c-1.4,0.2-2.7,0.5-3.8,1c-1.1,0.4-2.2,1-3.1,1.7s-1.8,1.5-2.7,2.5c-0.8,0.9-1.5,1.9-2.1,3s-1,2.3-1.4,3.6
	c-0.4,1.3-0.6,2.9-0.8,4.6c-0.2,1.7-0.3,3.6-0.3,5.8c0,4,0.3,7.3,0.8,10.1c0.5,2.8,1.4,5.1,2.7,7c0.8,1.3,1.8,2.4,2.9,3.2
	c1.1,0.8,2.2,1.3,3.4,1.7c1.2,0.4,2.4,0.6,3.6,0.7s2.4,0.1,3.6,0.1h14.5c-0.3,1.3-0.9,2.3-2,3.3c-0.4,0.3-0.9,0.6-1.4,0.7
	c-0.5,0.2-1.1,0.3-1.6,0.3c-0.5,0.1-1.1,0.1-1.6,0.1s-1,0-1.5,0h-25.1c-0.3,1.1-0.6,2.2-1.1,3.3c-0.6,1.3-1.3,2.5-2.3,3.6
	c-1.3,1.7-2.9,3-4.7,4.1h38.4c3.5,0,6.6-0.5,9.4-1.4s5-2.5,6.7-4.7c1-1.3,1.8-2.8,2.3-4.3s0.9-3.2,1.1-5.1h5.2h1.1h66.4
	C407.5,305.6,408.1,305.6,408.7,305.6z M317.6,294.1h-4.8c-0.6,0-1.2,0-1.9,0c-0.7,0-1.4-0.1-2-0.2c-0.7-0.1-1.4-0.3-2-0.7
	c-0.7-0.3-1.2-0.8-1.8-1.4c-0.6-0.7-1.1-1.7-1.4-3.2c-0.3-1.4-0.4-3.2-0.4-5.2c0-1.4,0.1-2.5,0.2-3.5s0.3-1.8,0.4-2.4
	c0.2-0.7,0.4-1.2,0.6-1.6s0.4-0.7,0.6-0.9c0.4-0.6,0.9-1,1.5-1.4c0.5-0.3,1.1-0.6,1.7-0.8c0.6-0.2,1.2-0.3,1.8-0.3
	c0.6,0,1.2-0.1,1.8-0.1h1.9c0.5,0,0.9,0,1.3,0.1s0.9,0.3,1.3,0.6c0.6,0.4,0.9,0.8,1.1,1.3c0.2,0.4,0.2,1,0.2,1.6v18.1H317.6z"/>
<path class="st0" d="M248.9,247.1c-1.2,0-2.2,1-2.2,2.2v5.3c0,1.2,1,2.2,2.2,2.2h8.6c1.2,0,2.2-1,2.2-2.2v-5.3c0-1.2-1-2.2-2.2-2.2
	L248.9,247.1L248.9,247.1z"/>
<path class="st0" d="M264,247.1c-1.2,0-2.2,1-2.2,2.2v5.3c0,1.2,1,2.2,2.2,2.2h8.6c1.2,0,2.2-1,2.2-2.2v-5.3c0-1.2-1-2.2-2.2-2.2
	L264,247.1L264,247.1z"/>
<path class="st0" d="M199.3,245.9c-1.2,0-2.2,1-2.2,2.2v5.3c0,1.2,1,2.2,2.2,2.2h8.6c1.2,0,2.2-1,2.2-2.2v-5.3c0-1.2-1-2.2-2.2-2.2
	H199.3z"/>
<path class="st0" d="M214.4,245.9c-1.2,0-2.2,1-2.2,2.2v5.3c0,1.2,1,2.2,2.2,2.2h8.6c1.2,0,2.2-1,2.2-2.2v-5.3c0-1.2-1-2.2-2.2-2.2
	H214.4z"/>
<polygon class="st0" points="346.8,0 346.8,223 337.5,223 337.5,64 320.7,64 320.7,223 320.7,239.6 320.7,239.6 337.5,239.6 
	337.5,239.6 363.4,239.6 363.4,225.2 363.4,223 363.4,0 "/>
<path class="st0" d="M295.7,102v115c0,0.7,0,1.4-0.1,2.1c0,0.7-0.1,1.5-0.3,2.2c-0.2,0.8-0.4,1.5-0.7,2.2c-0.3,0.7-0.7,1.4-1.2,2.1
	c-0.5,0.7-1.1,1.3-1.8,1.7c-0.6,0.4-1.3,0.7-2,1c-0.7,0.2-1.5,0.4-2.3,0.5s-1.6,0.1-2.4,0.1h-0.5l0,0H279c0.4-1.5,0.7-3.1,0.8-4.9
	c0.2-1.8,0.2-3.7,0.2-5.7c0-1.6,0-3.3-0.1-5s-0.3-3.4-0.6-5c-0.3-1.6-0.8-3.2-1.5-4.6c-0.7-1.5-1.6-2.8-2.8-4
	c-1.8-1.8-3.8-3-6.1-3.7c-2.3-0.7-4.8-1-7.6-1H237v11.4h16.6c2.8,0,4.9,0.5,6.1,1.6c1.3,1.1,2.1,2.4,2.5,3.8
	c0.3,0.9,0.5,1.9,0.6,2.8c0.1,0.9,0.2,2,0.2,3.2c0,2.7-0.2,4.6-0.5,5.6c-0.3,1.1-0.6,1.8-0.8,2.3c-0.8,1.3-1.9,2.1-3.1,2.5
	c-1.3,0.4-2.5,0.6-3.6,0.6h-18.6c-0.1,0.5-0.2,1-0.3,1.6c-0.5,1.8-1.2,3.5-2.1,5.2c-1,1.7-2.3,3.3-3.9,4.7h54.7h0.9h4.8
	c1.1,0,2.4,0,3.8-0.1s2.9-0.2,4.4-0.5s3-0.7,4.5-1.2c1.5-0.6,2.9-1.4,4.1-2.4c1.3-1,2.2-2.2,2.9-3.4c0.7-1.3,1.2-2.6,1.6-3.9
	c0.4-1.3,0.6-2.6,0.7-3.9c0.1-1.3,0.1-2.5,0.1-3.6V102H295.7z"/>
<g>
	<path class="st0" d="M553.2,140.7h28.3c28.4,0,39.9,20.4,39.9,59.5c0,42.2-10.9,65.1-41.6,65.1h-26.6L553.2,140.7L553.2,140.7z
		 M571,249.4h8.4c17.7,0,23.5-14.8,23.5-48.9c0-30.2-5.9-43.5-23.4-43.5H571V249.4z"/>
	<path class="st0" d="M692.7,208.4h-37.2v40.2h41.6l-2.2,16.8H638V140.7h56.5v17h-38.9v33.8h37.2L692.7,208.4L692.7,208.4z"/>
	<path class="st0" d="M728.2,140.7v124.7h-17.8V140.7H728.2z"/>
	<path class="st0" d="M767.1,210.7v54.6h-17.7V140.7h33.2c20.2,0,31.4,11.8,31.4,33.4c0,18.2-8.7,26.1-15,28.7
		c9.4,4.4,13.3,13.3,13.3,31.4v5c0,13.3,0.5,19.6,1.6,26.3h-17.3c-1.6-5.7-1.9-16-1.9-26.5v-4.4c0-17-3.4-23.7-17.2-23.7h-10.4
		V210.7z M767.1,194.9h11.3c12.9,0,17.9-6.7,17.9-20c0-11.4-4.9-18.3-16.1-18.3h-13v38.3H767.1z"/>
	<path class="st0" d="M845.6,231.2l-6.6,34.2h-17.8L848,140.7h23l27.3,124.7h-18.7l-6.6-34.2H845.6z M869.9,214.3
		c-5.1-26.2-8.8-44.3-10.5-55.5h-0.5c-1.5,11.3-5.4,31.3-10.1,55.5H869.9z"/>
	<path class="st0" d="M1011.1,216.7c0-22,0.3-45.9,0.7-59.7h-0.4c-4,23-11.7,68.4-19.8,108.4h-16.3c-6-36.5-14-85-17.9-108.7h-0.6
		c0.7,14.5,1.2,41.1,1.2,62.6v46.1h-16.4V140.7h26.5c7.1,36.1,13.6,75.2,16,92.8h0.2c2.3-15.7,10.8-58.2,17.8-92.8h26v124.7H1011
		L1011.1,216.7L1011.1,216.7z"/>
	<path class="st0" d="M1063.9,231.2l-6.6,34.2h-17.8l26.8-124.7h23l27.3,124.7h-18.7l-6.6-34.2H1063.9z M1088.2,214.3
		c-5.1-26.2-8.8-44.3-10.5-55.5h-0.5c-1.5,11.3-5.4,31.3-10.1,55.5H1088.2z"/>
	<path class="st0" d="M1145.8,210.7v54.6h-17.7V140.7h33.2c20.2,0,31.4,11.8,31.4,33.4c0,18.2-8.7,26.1-15,28.7
		c9.4,4.4,13.3,13.3,13.3,31.4v5c0,13.3,0.5,19.6,1.6,26.3h-17.3c-1.6-5.7-1.9-16-1.9-26.5v-4.4c0-17-3.4-23.7-17.2-23.7h-10.4
		V210.7z M1145.8,194.9h11.3c12.9,0,17.9-6.7,17.9-20c0-11.4-4.9-18.3-16.1-18.3h-13v38.3H1145.8z"/>
	<path class="st0" d="M1209.2,140.7h17.5v57.8c7-11.8,22.9-40.9,33-57.8h20.4l-30.6,49.3l31.3,75.4H1261l-23.6-59.2l-10.8,16.2v43
		h-17.5L1209.2,140.7L1209.2,140.7z"/>
	<path class="st0" d="M1343.4,191.5v16.9h-37.2v40.2h41.6l-2.2,16.8h-56.9V140.7h56.5v17h-38.9v33.8H1343.4L1343.4,191.5z"/>
	<path class="st0" d="M1376,157.7h-24.8v-17h67.3v17h-24.8v107.6H1376V157.7z"/>
</g>
</svg>
